<svg xmlns="http://www.w3.org/2000/svg" xmlns:xlink="http://www.w3.org/1999/xlink" viewBox="0 0 72 73.27"><defs><style>.cls-1{fill:url(#Sfumatura_senza_nome_237);}.cls-2{fill:url(#Sfumatura_senza_nome_237-2);}</style><linearGradient id="Sfumatura_senza_nome_237" x1="29.39" y1="36.64" x2="72.38" y2="36.64" gradientUnits="userSpaceOnUse"><stop offset="0" stop-color="#31c5d5"/><stop offset="0.42" stop-color="#38dbe5"/><stop offset="0.99" stop-color="#4ff"/></linearGradient><linearGradient id="Sfumatura_senza_nome_237-2" x1="0" y1="36.64" x2="34.87" y2="36.64" xlink:href="#Sfumatura_senza_nome_237"/></defs><g id="Livello_2" data-name="Livello 2"><g id="Livello_1-2" data-name="Livello 1"><path class="cls-1" d="M72,12V70.27a3,3,0,0,1-3,3H65a3,3,0,0,1-3-3V12a2,2,0,0,0-3.42-1.41L45.19,24l-7.47,7.64a2.51,2.51,0,0,1-3.6,0,20,20,0,0,0,0-10.74A19.8,19.8,0,0,0,29,12.06l5.21,5.21a2.52,2.52,0,0,0,3.56,0L51.51,3.54A12,12,0,0,1,72,12Z"/><path class="cls-2" d="M34.15,20.9A19.8,19.8,0,0,0,29,12.06L20.49,3.54A12,12,0,0,0,0,12V70.27a3,3,0,0,0,3,3H7a3,3,0,0,0,3-3V61.65a5,5,0,0,1,1.44-3.51l3.05-3.09,9.88-10,4.73-4.79a20,20,0,0,0,5-19.36ZM22.3,32.75l-8.89,8.89A2,2,0,0,1,10,40.22V12a2,2,0,0,1,3.41-1.42l8.89,8.89A9.38,9.38,0,0,1,22.3,32.75Z"/></g></g></svg>